<?xml version="1.0"?>
<svg xmlns="http://www.w3.org/2000/svg" viewBox="0 0 24 24">
    <path d="M 9 3 L 9 14.625 C 9 14.625 6.16425 12.71875 5.65625 12.71875 C 4.34625 12.71875 4 14.09375 4 14.09375 L 9.03125 20.71875 C 9.63625 21.51675 10.59375 22 11.59375 22 L 16 22 C 18.209 22 20 20.209 20 18 L 20 5 L 18 5 L 18 12 C 18 13.105 17.105 14 16 14 C 15.399 14 14.867 13.7325 14.5 13.3125 C 14.133 13.7325 13.601 14 13 14 C 11.895 14 11 13.105 11 12 L 11 3 L 9 3 z M 12 8 L 12 12 C 12 12.552 12.448 13 13 13 C 13.552 13 14 12.552 14 12 L 14 8 L 12 8 z M 15 8 L 15 12 C 15 12.552 15.448 13 16 13 C 16.552 13 17 12.552 17 12 L 17 8 L 15 8 z"/>
</svg>
